<svg width="42" height="42" viewBox="0 0 42 42" fill="none" xmlns="http://www.w3.org/2000/svg">
<g clip-path="url(#clip0_157_7666)">
<rect y="0.68457" width="41.5333" height="40.6304" rx="20.3152" fill="#7C5CFF"/>
<rect x="11.7383" y="33.189" width="1.80579" height="1.80579" rx="0.902897" fill="white"/>
<rect x="21.2571" y="-4.1427" width="46.4064" height="47.3778" rx="23.2032" transform="rotate(27.2323 21.2571 -4.1427)" stroke="white" stroke-width="1.35435"/>
<g clip-path="url(#clip1_157_7666)">
<rect x="10.8359" y="8.80957" width="1.80579" height="1.80579" rx="0.902897" fill="white"/>
<rect x="10.832" y="12.4219" width="0.902897" height="0.902897" rx="0.451449" fill="white"/>
<path d="M30.6952 30.9302V28.2215C30.6952 26.7563 31.1705 25.3306 32.0496 24.1584L32.2499 23.8913C32.999 22.8925 33.4039 21.6778 33.4039 20.4293V20.4293C33.4039 18.7811 32.6991 17.2117 31.4673 16.1167L31.3355 15.9995C30.0629 14.8683 28.3789 14.314 26.6832 14.4682L26.2288 14.5095C25.0229 14.6191 23.881 15.1014 22.9616 15.8895L22.8578 15.9784C21.8021 16.8833 21.1294 18.1554 20.9759 19.5374L20.9283 19.9652C20.8216 20.9262 20.3909 21.8222 19.7072 22.5059L19.4425 22.7706C19.4203 22.7929 19.3958 22.8129 19.3696 22.8304V22.8304C18.9757 23.093 19.1616 23.707 19.635 23.707H20.7721C21.2534 23.707 21.632 24.1184 21.592 24.5981L21.4406 26.4157C21.319 27.8738 22.4697 29.1244 23.9329 29.1244H25.2779H27.0837" stroke="white" stroke-width="0.902897"/>
</g>
<rect x="2.08085" y="-16.7422" width="70.0157" height="97.7665" rx="35.0079" transform="rotate(-14.8968 2.08085 -16.7422)" stroke="white" stroke-width="0.451449"/>
<rect x="5.41797" y="12.4219" width="0.902897" height="0.902897" rx="0.451449" fill="white"/>
<rect x="5.41797" y="16.0342" width="1.80579" height="1.80579" rx="0.902897" fill="white"/>
</g>
<defs>
<clipPath id="clip0_157_7666">
<rect y="0.68457" width="41.5333" height="40.6304" rx="20.3152" fill="white"/>
</clipPath>
<clipPath id="clip1_157_7666">
<rect x="1.80469" y="-16.9023" width="70.4672" height="98.218" rx="35.2336" transform="rotate(-14.8968 1.80469 -16.9023)" fill="white"/>
</clipPath>
</defs>
</svg>
